<svg width="3000" height="3000" viewBox="0 0 3000 3000" fill="none" xmlns="http://www.w3.org/2000/svg">
<g clip-path="url(#clip0)">
<path d="M2150.31 2105.75L2183.98 2113.32C2185.95 2113.76 2187.74 2114.79 2189.11 2116.27L2200 2128L2222 2149L2234.41 2163.18C2235.45 2164.38 2236.2 2165.8 2236.59 2167.34L2239.7 2179.81C2239.9 2180.6 2240 2181.41 2240 2182.23V2201.02C2240 2202.33 2240.26 2203.62 2240.75 2204.83L2244.86 2214.81C2246.19 2218.03 2245.74 2221.72 2243.68 2224.53L2236.5 2234.32C2236.17 2234.77 2235.87 2235.25 2235.62 2235.76L2230.58 2245.83C2230.2 2246.61 2229.71 2247.33 2229.14 2247.98L2215 2264L2202.77 2277.86C2201.01 2279.86 2198.47 2281 2195.81 2281H2194.68C2193.58 2281 2192.51 2281.32 2191.61 2281.93C2189.06 2283.63 2188.37 2287.06 2190.07 2289.61L2192.09 2292.63C2192.69 2293.54 2193.45 2294.33 2194.33 2294.97L2198.45 2297.96C2201.79 2300.4 2203.3 2304.63 2202.23 2308.63L2200.34 2315.73C2200.11 2316.57 2200 2317.44 2200 2318.31V2322.51C2200 2325.37 2201.22 2328.09 2203.36 2329.98L2209 2335L2221.74 2344.55C2223.83 2346.12 2225.22 2348.45 2225.62 2351.03L2226.09 2354.08C2226.65 2357.72 2225.16 2361.38 2222.2 2363.6L2220.11 2365.17C2216.99 2367.51 2215.52 2371.44 2216.32 2375.24L2221.32 2398.78C2221.76 2400.87 2222.86 2402.77 2224.46 2404.18L2238.46 2416.63C2239.47 2417.53 2240.3 2418.64 2240.87 2419.87L2247 2433L2258.19 2459.11C2258.72 2460.36 2259 2461.7 2259 2463.05V2472.98C2259 2474.31 2258.73 2475.63 2258.22 2476.86L2252.78 2489.76C2251.65 2492.45 2251.75 2495.5 2253.06 2498.11L2258.08 2508.16C2258.69 2509.38 2259.53 2510.45 2260.57 2511.33L2265.28 2515.31C2269.12 2518.56 2274.78 2518.45 2278.49 2515.05L2284 2510L2297.97 2500.14C2299.92 2498.76 2301.32 2496.72 2301.9 2494.4L2304.33 2484.69C2304.77 2482.93 2305.68 2481.32 2306.96 2480.04L2317 2470L2337.05 2453.77C2337.68 2453.26 2338.37 2452.83 2339.11 2452.48L2365.99 2439.94C2367.31 2439.32 2368.76 2439 2370.22 2439H2387.64C2389.19 2439 2390.72 2438.64 2392.11 2437.94L2397.31 2435.34C2400.25 2433.88 2402.28 2431.06 2402.74 2427.81L2404.67 2414.29C2404.89 2412.78 2404.76 2411.25 2404.29 2409.8L2395.98 2384.02C2395.34 2382.06 2394.11 2380.33 2392.46 2379.09L2379 2369L2366.05 2360.68C2365.35 2360.23 2364.71 2359.69 2364.15 2359.09L2352.15 2346.23C2351.39 2345.42 2350.5 2344.73 2349.51 2344.21L2318.57 2327.83C2317.53 2327.28 2316.6 2326.55 2315.81 2325.68L2309 2318.11C2308.34 2317.37 2307.79 2316.54 2307.37 2315.65L2302.48 2305.17C2301.53 2303.14 2301.43 2300.82 2302.19 2298.72C2303.76 2294.42 2308.45 2292.15 2312.79 2293.6L2313.07 2293.69C2313.69 2293.9 2314.27 2294.19 2314.8 2294.57C2318.05 2296.9 2322.62 2295.76 2324.41 2292.18L2325.72 2289.56C2327.13 2286.73 2326.96 2283.37 2325.26 2280.69L2321 2274L2316.5 2267.57C2314.91 2265.29 2314.33 2262.46 2314.91 2259.74L2316.78 2251.04C2316.93 2250.35 2317 2249.64 2317 2248.94V2229.83C2317 2229.28 2316.95 2228.73 2316.86 2228.18L2314.28 2212.66C2314.09 2211.56 2313.73 2210.5 2313.19 2209.52L2312.09 2207.5C2309.74 2203.18 2310.87 2197.79 2314.77 2194.79L2319.64 2191.04C2320.54 2190.35 2321.32 2189.52 2321.93 2188.57L2332.38 2172.49C2333.44 2170.86 2334 2168.97 2334 2167.04V2157.79C2334 2157.27 2334.04 2156.74 2334.13 2156.22L2337.76 2133.52C2337.92 2132.51 2338.23 2131.54 2338.69 2130.63L2342.74 2122.52C2344.16 2119.68 2346.85 2117.68 2349.97 2117.14L2366.17 2114.32C2367.38 2114.11 2368.54 2113.68 2369.6 2113.04L2380.34 2106.59C2382.07 2105.56 2383.45 2104.02 2384.29 2102.18L2392.87 2083.45C2393.61 2081.85 2393.91 2080.07 2393.74 2078.31L2389 2030V2019.54C2389 2016.65 2387.76 2013.91 2385.59 2012.01L2366.67 1995.46C2365.57 1994.5 2364.27 1993.79 2362.87 1993.38L2334 1985L2308.83 1977.26C2308.28 1977.09 2307.71 1976.96 2307.13 1976.89L2278.62 1973.33C2276.9 1973.11 2275.16 1973.35 2273.56 1974.01L2247 1985L2221.22 1996.05C2219.76 1996.67 2218.17 1996.94 2216.59 1996.83L2176.86 1994.06C2176.29 1994.02 2175.71 1994.03 2175.14 1994.09L2151.16 1996.57C2148.5 1996.84 2146.06 1998.18 2144.38 2000.27L2137.19 2009.26C2135.77 2011.03 2135 2013.24 2135 2015.51V2030V2067.22C2135 2067.74 2134.96 2068.26 2134.88 2068.78L2132.71 2082.52C2132.26 2085.37 2133.06 2088.27 2134.9 2090.48L2144.83 2102.39C2146.24 2104.08 2148.16 2105.26 2150.31 2105.75Z" fill="#04C700"/>
<path d="M2544.23 1751.07L2562 1731.5L2579.03 1716.62C2582.14 1713.9 2584.66 1710.57 2586.42 1706.84L2594.75 1689.2C2595.9 1686.76 2597.58 1684.62 2599.67 1682.92C2606.92 1677.03 2617.48 1677.68 2623.96 1684.41L2632.68 1693.47C2636.17 1697.1 2640.52 1699.79 2645.32 1701.3L2649.16 1702.5C2657.96 1705.26 2667.56 1702.84 2674 1696.25C2680.44 1689.65 2682.63 1680 2679.67 1671.27L2677.97 1666.26C2676.04 1660.55 2672.43 1655.56 2667.61 1651.94L2641.66 1632.39C2638.26 1629.83 2635.44 1626.57 2633.4 1622.83L2623.92 1605.52C2622.66 1603.21 2622 1600.62 2622 1597.99C2622 1592.69 2624.68 1587.76 2629.11 1584.86L2632.78 1582.47C2640.27 1577.58 2644.39 1568.89 2643.41 1559.99L2642.88 1555.11C2642 1547.09 2644.6 1539.07 2650.01 1533.08C2660.68 1521.26 2659.5 1502.96 2647.38 1492.62L2632.95 1480.3C2630.01 1477.79 2626.62 1475.87 2622.95 1474.65L2559.62 1453.54C2556.56 1452.52 2553.36 1452 2550.13 1452H2491.6C2485.36 1452 2479.27 1453.95 2474.18 1457.58L2421.35 1495.25C2416.56 1498.68 2412.87 1503.43 2410.76 1508.93L2387.45 1569.71C2384.86 1576.44 2384.15 1583.75 2385.38 1590.86L2394.07 1641.01C2394.36 1642.67 2394.78 1644.3 2395.34 1645.88L2423.88 1726.74C2426.22 1733.37 2430.81 1738.97 2436.86 1742.55L2445.88 1747.9C2452.98 1752.11 2461.5 1753.22 2469.43 1750.95L2475.79 1749.13C2483.89 1746.82 2492.58 1748.01 2499.76 1752.43L2506.3 1756.45C2518.59 1764.02 2534.53 1761.76 2544.23 1751.07Z" fill="#FFD600"/>
<path d="M1470 3019L1466.67 3025.36C1463.18 3032.02 1468.01 3040 1475.53 3040H1850C1855.52 3040 1860 3035.52 1860 3030V3009.4C1860 3005.5 1857.73 3001.95 1854.19 3000.32L1849.97 2998.37C1848.04 2997.48 1846.44 2996 1845.41 2994.15L1842 2988L1840.28 2983.87C1838.39 2979.34 1840.08 2974.1 1844.26 2971.52L1868.45 2956.58C1870.11 2955.55 1871.44 2954.05 1872.26 2952.28L1884 2927L1907.2 2883.49C1907.73 2882.5 1908.42 2881.61 1909.24 2880.85L1920.5 2870.46C1920.83 2870.15 1921.19 2869.88 1921.58 2869.65L1927.47 2866.12C1931.41 2863.75 1936 2868 1933.94 2872.11C1933.35 2873.31 1933.3 2874.71 1933.82 2875.95L1940.24 2891.19C1940.74 2892.39 1941.47 2893.47 1942.39 2894.39L1943.62 2895.62C1947.25 2899.25 1953.02 2899.54 1957 2896.31L1966 2889L1985.14 2870.82C1985.71 2870.27 1986.22 2869.66 1986.65 2869L1992.41 2860.09C1994.94 2856.18 1993.8 2850.97 1989.88 2848.47C1987.46 2846.93 1986 2844.27 1986 2841.4V2834.36C1986 2832.81 1986.36 2831.28 1987.06 2829.89L1990.93 2822.14C1991.63 2820.73 1992.66 2819.51 1993.93 2818.57L2012.55 2804.81C2014.15 2803.63 2015.36 2802 2016.02 2800.13L2023.81 2778.33C2024.58 2776.18 2024.59 2773.82 2023.83 2771.66L2018.81 2757.33C2018.28 2755.8 2017.38 2754.42 2016.2 2753.32L2005.88 2743.69C2004.03 2741.96 2001.59 2741 1999.06 2741H1981.35C1979.18 2741 1977.06 2740.29 1975.32 2738.98L1961.39 2728.45C1958.12 2725.98 1953.47 2726.58 1950.94 2729.81C1950.32 2730.59 1949.55 2731.25 1948.67 2731.74L1933.71 2740.05C1932.58 2740.68 1931.34 2741.08 1930.06 2741.24L1917.84 2742.72C1916.3 2742.9 1914.74 2742.73 1913.28 2742.21L1902.77 2738.46C1901.93 2738.15 1901.05 2737.97 1900.15 2737.9L1891.53 2737.26C1889.25 2737.09 1887.09 2736.14 1885.42 2734.57L1871.78 2721.74C1871.26 2721.25 1870.8 2720.7 1870.39 2720.11L1861.22 2706.73C1859.79 2704.65 1857.64 2703.19 1855.18 2702.63L1828.72 2696.64C1824.43 2695.66 1820.01 2697.61 1817.83 2701.43L1813.5 2709L1809.52 2716.96C1809.17 2717.65 1808.75 2718.3 1808.26 2718.89L1800.88 2727.75C1799.65 2729.22 1798.87 2731.01 1798.64 2732.91L1797.55 2741.58C1797.2 2744.39 1795.67 2746.93 1793.34 2748.55L1789.99 2750.88C1787.19 2752.82 1783.6 2753.21 1780.45 2751.91L1773.64 2749.09C1771.92 2748.38 1770.02 2748.16 1768.18 2748.47L1766.75 2748.71C1765.59 2748.9 1764.41 2748.89 1763.26 2748.67L1752.04 2746.57C1750.06 2746.2 1748.24 2745.24 1746.81 2743.81L1742.88 2739.88C1741.65 2738.65 1740.76 2737.12 1740.3 2735.44L1740.14 2734.83C1739.72 2733.3 1738.94 2731.89 1737.87 2730.72L1730.78 2722.95C1729.61 2721.67 1728.8 2720.11 1728.41 2718.42L1724 2699L1719.02 2682.39C1718.36 2680.2 1716.97 2678.3 1715.07 2677L1707 2671.5L1701.53 2668.76C1698.14 2667.07 1696 2663.61 1696 2659.82V2650V2642.38C1696 2639.88 1695.07 2637.48 1693.38 2635.63L1680.56 2621.61C1680.19 2621.2 1679.78 2620.83 1679.35 2620.49L1670.15 2613.26C1667.55 2611.22 1664.11 2610.6 1660.96 2611.59L1650.92 2614.76C1648.41 2615.55 1646.31 2617.31 1645.08 2619.64L1643.15 2623.31C1642.39 2624.75 1642 2626.35 1642 2627.97V2634.94C1642 2635.64 1641.93 2636.35 1641.78 2637.04L1640.69 2642.1C1639.71 2646.71 1635.63 2650 1630.92 2650H1628L1619.77 2654.7C1618.28 2655.55 1617.04 2656.77 1616.16 2658.24L1612.33 2664.61C1611.78 2665.53 1611.08 2666.36 1610.27 2667.06L1598.3 2677.32C1597.77 2677.77 1597.19 2678.17 1596.58 2678.5L1595.43 2679.13C1593.22 2680.33 1590.65 2680.66 1588.21 2680.05L1572 2676L1562.84 2673.5C1561.62 2673.17 1560.48 2672.61 1559.47 2671.85L1550.87 2665.4C1549.64 2664.48 1548.22 2663.85 1546.71 2663.57L1534.71 2661.32C1533.58 2661.11 1532.42 2661.09 1531.28 2661.27L1483.78 2668.88C1483.26 2668.96 1482.75 2669.08 1482.25 2669.24L1433.18 2685.29C1431.75 2685.76 1430.43 2686.55 1429.35 2687.6L1402.87 2713.16C1402.29 2713.72 1401.78 2714.34 1401.36 2715.02L1390.6 2732.06C1390.2 2732.68 1389.74 2733.26 1389.21 2733.79L1374.27 2748.73C1372.79 2750.21 1370.89 2751.18 1368.84 2751.53L1358.13 2753.31C1355.49 2753.75 1353.13 2755.23 1351.59 2757.43L1328.76 2789.92C1328.26 2790.64 1327.66 2791.29 1326.98 2791.85L1318.19 2799.18C1316.76 2800.37 1315.69 2801.93 1315.1 2803.7L1311.43 2814.71L1318.85 2844.4C1319.58 2847.31 1321.58 2849.74 1324.29 2851.02L1334.25 2855.7C1336.04 2856.55 1337.54 2857.91 1338.56 2859.61L1342.51 2866.18C1342.83 2866.72 1343.11 2867.3 1343.33 2867.9L1346.75 2877.32C1346.92 2877.77 1347.12 2878.21 1347.34 2878.64L1352.8 2888.78C1353.59 2890.24 1354 2891.87 1354 2893.52V2901V2910V2912.65C1354 2915.99 1355.67 2919.11 1358.45 2920.97L1364.71 2925.14C1365.56 2925.71 1366.33 2926.41 1366.97 2927.21L1371 2932.25C1372.9 2934.62 1375.77 2936 1378.81 2936H1385.76C1387.24 2936 1388.69 2936.33 1390.02 2936.95L1404.08 2943.56C1404.69 2943.85 1405.27 2944.21 1405.82 2944.61L1421 2956L1435 2968L1447.38 2977.52C1447.79 2977.84 1448.23 2978.13 1448.69 2978.38L1467.1 2988.42C1468.98 2989.44 1470.49 2991.05 1471.39 2993L1474.25 2999.21C1475.37 3001.63 1475.47 3004.41 1474.53 3006.91L1470 3019Z" fill="#0029FF"/>
<path d="M513.336 48.9132L532.877 35.1925C534.888 33.7805 536.309 31.6774 536.869 29.2847L543.194 2.22371C544.252 -2.30026 548.286 -5.5 552.932 -5.5H828.827C834.605 -5.5 839.181 -0.615895 838.805 5.15078L836.735 36.8998C836.583 39.2265 835.623 41.4271 834.021 43.121L820.311 57.6137C819.445 58.5296 818.76 59.6012 818.291 60.7718L811.576 77.5607C810.569 80.0783 810.627 82.8969 811.738 85.3705L820.376 104.611C820.79 105.532 821.34 106.385 822.009 107.141L843.47 131.401C843.823 131.8 844.143 132.226 844.428 132.676L849.4 140.526C851.819 144.346 851.374 149.313 848.315 152.643L841.163 160.426C838.355 163.481 837.726 167.953 839.582 171.664L841.236 174.972C842.93 178.36 846.393 180.5 850.18 180.5H855.644C860.018 180.5 863.345 184.428 862.626 188.742C862.235 191.088 860.692 193.081 858.519 194.047L841.089 201.794C840.037 202.261 838.913 202.543 837.766 202.628L817.372 204.139C814.298 204.367 811.5 206 809.79 208.565L806.973 212.79C806.008 214.238 804.681 215.409 803.125 216.188L790.38 222.56C789.14 223.18 788.043 224.051 787.158 225.117L767.442 248.865C766.821 249.614 766.051 250.225 765.181 250.66C761.956 252.272 758.034 251.178 756.108 248.13L754.342 245.333C753.784 244.45 753.091 243.659 752.289 242.991L738.957 231.881C736.759 230.049 733.88 229.246 731.051 229.677L719.565 231.425C715.339 232.068 711.172 229.954 709.194 226.164L707.903 223.69C706.996 221.95 706.719 219.951 707.119 218.03C708.132 213.168 704.774 208.479 699.845 207.871L676.5 204.993C673.934 204.677 671.345 205.367 669.276 206.918L663.748 211.064C662.921 211.684 662.195 212.429 661.596 213.272L640.378 243.135C637.559 247.102 632.294 248.464 627.905 246.361L615.146 240.247C612.807 239.126 610.995 237.141 610.092 234.711L606.263 224.401C605.447 222.204 603.885 220.363 601.85 219.2L598.529 217.302C598.178 217.101 597.803 216.944 597.415 216.833C594.2 215.914 591 218.328 591 221.671V225.575C591 227.762 591.898 229.853 593.483 231.359L595.24 233.028C598.613 236.232 599.33 241.338 596.972 245.348L593.634 251.022C591.983 253.829 591.802 257.265 593.15 260.23L598.662 272.357C600.113 275.549 603.129 277.748 606.611 278.152L618.785 279.568C621.181 279.847 623.395 280.981 625.02 282.764L638 297L644.313 305.768C646 308.111 648.711 309.5 651.599 309.5C655.897 309.5 659.592 312.546 660.413 316.765L661.035 319.967C661.826 324.036 658.996 327.92 654.881 328.414C651.942 328.767 649.526 330.897 648.808 333.769L648.412 335.352C647.545 338.818 644.809 341.506 641.328 342.309L636.647 343.389C634.975 343.775 633.57 344.903 632.832 346.453L632.707 346.715C630.987 350.328 633.621 354.5 637.623 354.5C639.423 354.5 641.107 355.39 642.121 356.877L648 365.5L654.602 373.902C657.234 377.253 657.455 381.904 655.15 385.488L650 393.5L646.05 399.096C644.724 400.974 642.791 402.339 640.577 402.959L637.502 403.82C633.828 404.848 631.06 407.877 630.365 411.628L630.112 412.997C629.429 416.683 626.743 419.677 623.152 420.754L615.406 423.078C614.474 423.358 613.506 423.5 612.532 423.5H602.902C601.645 423.5 600.4 423.263 599.231 422.802L582 416L570.5 410.5L554.788 401.771C553.288 400.938 552.028 399.732 551.128 398.271L546.313 390.446C545.139 388.538 543.357 387.079 541.254 386.304L540.092 385.876C536.916 384.706 534.547 382.009 533.797 378.709L533.398 376.953C532.822 374.418 533.256 371.758 534.608 369.537L538.529 363.095C539.171 362.041 539.612 360.877 539.83 359.662L542.35 345.619C542.761 343.334 544.195 341.362 546.244 340.27C548.841 338.885 552.004 339.128 554.359 340.894L555.346 341.634C557.365 343.149 559.904 343.799 562.403 343.442L570.672 342.261C571.88 342.089 573.047 341.696 574.114 341.103L582.252 336.582C584.645 335.253 586.389 333 587.076 330.35L588.178 326.098C589.006 322.907 588.207 319.513 586.044 317.026L581.954 312.322C580.372 310.502 579.5 308.172 579.5 305.76V297C579.5 292.582 575.918 289 571.5 289H569.772C567.202 289 564.902 290.594 564 293C563.098 295.406 560.798 297 558.228 297H550.5L532.5 295L528.075 293.894C523.623 292.781 520.5 288.781 520.5 284.192V283.028C520.5 281.053 519.916 279.123 518.82 277.481L516.956 274.683C515.421 272.382 512.839 271 510.073 271C507.505 271 505.082 272.193 503.517 274.228L503.043 274.844C501.718 276.566 501 278.678 501 280.85V287.484C501 288.489 500.849 289.488 500.551 290.448L499.209 294.771C497.675 299.714 492.623 302.669 487.563 301.585L484.433 300.914C483.171 300.644 482.014 300.014 481.102 299.102L479.123 297.123C476.686 294.686 472.554 295.512 471.241 298.699C470.766 299.855 469.861 300.781 468.717 301.283L456.127 306.81C452.419 308.438 448.095 307.669 445.176 304.862L439.903 299.792C438.04 298 435.557 297 432.972 297H411.8C410.61 297 409.429 296.787 408.313 296.372L389.954 289.541C388.99 289.182 388.088 288.677 387.278 288.044L380.837 283.003C378.415 281.107 377 278.203 377 275.128V262.484C377 260.853 376.601 259.246 375.838 257.805L372.988 252.422C372.664 251.809 372.276 251.231 371.832 250.699L370.227 248.773C367.185 245.122 367.132 239.835 370.101 236.124L376.489 228.139C376.829 227.714 377.203 227.317 377.608 226.953L390.281 215.547C391.412 214.529 392.76 213.783 394.224 213.365L404.653 210.385C405.547 210.13 406.471 210 407.401 210H408.5C414.023 210 418.5 205.523 418.5 200V198.574C418.5 197.86 418.577 197.148 418.728 196.45L419.992 190.635C420.571 187.974 419.109 185.291 416.559 184.335C414.418 183.532 413 181.485 413 179.199V177.993C413 176.077 413.761 174.239 415.116 172.884L422.982 165.018C423.657 164.343 424.232 163.574 424.69 162.736L428.475 155.795C429.467 153.977 429.87 151.895 429.628 149.838L428.563 140.785C428.215 137.828 426.304 135.286 423.56 134.13L423.023 133.904C420.282 132.75 418.5 130.066 418.5 127.092C418.5 124.824 419.541 122.682 421.325 121.281L430.073 114.407C431.654 113.165 433.573 112.428 435.58 112.293L490.675 108.589C491.555 108.53 492.422 108.355 493.255 108.068L497.741 106.526C503.267 104.627 505.994 98.4147 503.652 93.0614L501.395 87.9022C501.132 87.3022 500.929 86.6778 500.789 86.0381L497.632 71.6547C496.923 68.429 497.854 65.0618 500.117 62.657L511.8 50.2437C512.265 49.7492 512.78 49.3034 513.336 48.9132Z" fill="#0029FF"/>
<path d="M2885.22 363.37L2877.63 364.748C2874.99 365.229 2872.26 364.626 2870.07 363.074L2854.73 352.224C2853.59 351.417 2852.63 350.38 2851.92 349.18L2838.2 326.18C2837.74 325.397 2837.17 324.682 2836.5 324.053L2808.76 297.673C2807.6 296.574 2806.2 295.767 2804.67 295.32L2785.98 289.87C2784.04 289.303 2782.31 288.16 2781.04 286.592L2770.12 273.212C2768.44 271.156 2767.65 268.516 2767.92 265.876L2769.65 248.889C2769.88 246.692 2770.82 244.63 2772.34 243.027L2795.56 218.518C2796.51 217.517 2797.66 216.723 2798.93 216.185L2803.7 214.167C2807.5 212.559 2811.89 213.451 2814.77 216.412L2825.77 227.749C2826.26 228.248 2826.79 228.696 2827.37 229.084L2849.38 243.882C2853.69 246.777 2859.5 245.895 2862.75 241.852L2869.38 233.62C2871.88 230.512 2875.99 229.189 2879.83 230.252L2896.15 234.766C2896.72 234.922 2897.27 235.127 2897.79 235.379L2911.74 242.036C2915.98 244.059 2918.24 248.759 2917.17 253.333L2913.39 269.556C2912.54 273.182 2913.87 276.97 2916.8 279.271C2918.24 280.4 2919.32 281.916 2919.92 283.641L2924.22 295.91C2925.33 299.087 2927.97 301.492 2931.23 302.308L2939.6 304.4C2941.18 304.794 2942.63 305.566 2943.84 306.649L2945.53 308.16C2949.02 311.281 2949.88 316.405 2947.59 320.491L2942.82 329.033C2942.28 330.004 2941.58 330.878 2940.75 331.618L2926.8 344.059C2924.7 345.932 2921.9 346.834 2919.11 346.542L2906.22 345.2C2902.16 344.777 2898.25 346.867 2896.34 350.479L2892.27 358.199C2890.84 360.914 2888.24 362.821 2885.22 363.37Z" fill="#0029FF"/>
<path d="M1604.51 1501.02L1619.79 1508.81C1624.43 1511.18 1630.11 1509.59 1632.84 1505.16L1637.12 1498.23C1638.02 1496.77 1639.29 1495.56 1640.8 1494.73L1676.83 1474.87C1677.28 1474.62 1677.7 1474.34 1678.11 1474.03L1697.61 1459C1700.06 1457.11 1701.5 1454.18 1701.5 1451.08V1418.01C1701.5 1416.68 1701.76 1415.37 1702.28 1414.14L1706.45 1404.2C1707.44 1401.83 1709.32 1399.93 1711.68 1398.9L1727.71 1391.93C1729.84 1391.01 1731.58 1389.37 1732.63 1387.3L1743.03 1366.87C1744.29 1364.4 1744.46 1361.52 1743.52 1358.92L1741.36 1352.99C1741.12 1352.33 1740.81 1351.7 1740.44 1351.11L1731.69 1337.11C1731.23 1336.37 1730.68 1335.7 1730.04 1335.11L1708 1314.5L1698.72 1303.73C1696.69 1301.38 1695.87 1298.22 1696.5 1295.18L1700.97 1273.58C1701.32 1271.89 1701.22 1270.14 1700.69 1268.49L1692.48 1242.99C1692.16 1242 1692 1240.97 1692 1239.93V1238.95C1692 1233.07 1686.95 1228.46 1681.09 1228.99L1655.66 1231.3C1654.24 1231.43 1652.8 1231.26 1651.45 1230.78L1650.2 1230.34C1646.19 1228.94 1643.5 1225.12 1643.5 1220.87C1643.5 1218.69 1642.79 1216.56 1641.48 1214.82L1630.26 1199.99C1628.8 1198.06 1626.7 1196.73 1624.33 1196.23L1574.01 1185.71C1573.34 1185.57 1572.65 1185.5 1571.97 1185.5H1524.06C1522.07 1185.5 1520.12 1186.1 1518.46 1187.22L1508.4 1194.03C1505.65 1195.89 1504 1198.99 1504 1202.31V1208.82C1504 1211.78 1505.32 1214.6 1507.6 1216.5L1513.6 1221.5C1515.16 1222.8 1516.29 1224.55 1516.84 1226.51L1519.68 1236.76C1520.51 1239.75 1519.91 1242.95 1518.05 1245.44L1509.73 1256.53C1508.29 1258.44 1506.21 1259.78 1503.87 1260.29L1493.52 1262.56C1492.19 1262.85 1490.81 1262.87 1489.47 1262.61L1476.92 1260.16C1474.7 1259.73 1472.7 1258.57 1471.23 1256.86L1463.5 1247.83C1462.2 1246.31 1460.47 1245.22 1458.54 1244.69L1437.93 1239.07C1435.41 1238.38 1432.72 1238.71 1430.44 1239.98L1420.5 1245.5L1402.24 1257.39C1400.16 1258.75 1398.65 1260.84 1398.02 1263.24L1396.56 1268.86C1396.19 1270.27 1396.13 1271.74 1396.4 1273.17L1398.42 1284.32C1398.8 1286.39 1399.82 1288.28 1401.33 1289.74L1412 1300L1430.99 1318.56C1432.91 1320.44 1434 1323.02 1434 1325.71V1331.51C1434 1334.37 1432.78 1337.09 1430.64 1338.98L1429.56 1339.95C1424.86 1344.12 1425.14 1351.55 1430.13 1355.36L1446 1367.5L1476.3 1388.94C1477.74 1389.96 1478.89 1391.35 1479.62 1392.95L1485.59 1406.02C1486.19 1407.32 1486.5 1408.74 1486.5 1410.18V1423.74C1486.5 1424.58 1486.61 1425.41 1486.81 1426.22L1490.16 1439.28C1491 1442.54 1493.42 1445.16 1496.6 1446.25L1503.95 1448.78C1506.24 1449.57 1508.73 1449.5 1510.98 1448.58L1519.19 1445.24C1520.38 1444.75 1521.67 1444.5 1522.96 1444.5H1530.98C1533.56 1444.5 1536.04 1445.5 1537.9 1447.28L1547 1456L1561.93 1472.74C1562.96 1473.9 1563.71 1475.28 1564.12 1476.77L1565.39 1481.42C1566.1 1484.03 1567.83 1486.24 1570.2 1487.54L1584.36 1495.37C1585.12 1495.79 1585.93 1496.11 1586.77 1496.32L1602.4 1500.22C1603.13 1500.41 1603.84 1500.67 1604.51 1501.02Z" fill="#57C5CC"/>
<path d="M1430.81 1342.25L1431.2 1341.52C1431.73 1340.51 1432.18 1339.45 1432.53 1338.36L1433.59 1335.09C1435.98 1327.71 1433.88 1319.62 1428.22 1314.32L1404.38 1292.03C1400.91 1288.78 1398.71 1284.4 1398.17 1279.68L1397.6 1274.66C1396.65 1266.24 1401.3 1258.19 1409.06 1254.81C1421.52 1249.38 1424.6 1233.1 1414.99 1223.49L1402.68 1211.18C1400.91 1209.41 1398.82 1207.99 1396.52 1206.99L1375.69 1197.91C1371.79 1196.22 1369.62 1192.02 1370.49 1187.85C1371.12 1184.83 1370.15 1181.7 1367.93 1179.56L1364.26 1176.02C1360.27 1172.17 1359.34 1166.13 1362 1161.26C1362.98 1159.45 1363.5 1157.42 1363.5 1155.36V1154.75C1363.5 1148.11 1359.06 1142.29 1352.65 1140.54L1343.38 1138.01C1338.63 1136.72 1334.52 1133.71 1331.85 1129.58L1330.5 1127.5L1326.27 1119.84C1323.85 1115.44 1319.85 1112.12 1315.09 1110.53L1298.58 1105.03C1296.54 1104.35 1294.4 1104 1292.25 1104H1251.74C1247.97 1104 1244.24 1104.87 1240.85 1106.54C1220.87 1116.4 1197.13 1114.69 1178.77 1102.08L1165.1 1092.69C1161.19 1090.01 1156.38 1088.98 1151.72 1089.82L1145.42 1090.97C1140.04 1091.95 1135.3 1095.08 1132.29 1099.65L1128.95 1104.72C1125.52 1109.94 1124.72 1116.46 1126.79 1122.35L1139.5 1158.5L1142.14 1168.59C1143.92 1175.36 1142.02 1182.57 1137.14 1187.59L1130.38 1194.55C1128.81 1196.17 1127.58 1198.08 1126.76 1200.18C1124.72 1205.39 1125.38 1211.26 1128.53 1215.88L1135.4 1225.98C1138.05 1229.87 1141.98 1232.7 1146.51 1233.98L1156.13 1236.69C1158.02 1237.22 1159.74 1238.2 1161.16 1239.55C1165.41 1243.57 1166.17 1250.06 1162.96 1254.95L1162.08 1256.29C1160.1 1259.31 1157.04 1261.45 1153.52 1262.27L1147.2 1263.72C1142.25 1264.87 1137.92 1267.84 1135.09 1272.06L1102.79 1320.11C1100.08 1324.15 1099.32 1329.2 1100.73 1333.87C1102.44 1339.5 1107.07 1343.77 1112.83 1345.02L1153.14 1353.73C1157.03 1354.57 1160.81 1355.88 1164.39 1357.61L1205.97 1377.77C1207.65 1378.59 1209.43 1379.16 1211.28 1379.48L1244.3 1385.21C1245.43 1385.4 1246.58 1385.5 1247.72 1385.5H1249.37C1254.88 1385.5 1260.14 1383.23 1263.92 1379.22L1271 1371.72C1273.3 1369.28 1276.17 1367.46 1279.36 1366.42L1296 1361L1304.55 1357.46C1308.42 1355.86 1312.69 1355.52 1316.77 1356.48L1333.74 1360.47C1335.24 1360.82 1336.78 1361 1338.32 1361H1346.08C1347.36 1361 1348.63 1361.12 1349.88 1361.36L1363.5 1364L1370.66 1365.91C1375.69 1367.25 1381.04 1366.58 1385.58 1364.03L1389.24 1361.99C1390.41 1361.33 1391.64 1360.79 1392.92 1360.39L1419.2 1351.99C1424.2 1350.39 1428.37 1346.9 1430.81 1342.25Z" fill="#FF5C00"/>
<path d="M1647.76 1535.48L1656.92 1519.61C1658.29 1517.23 1660.14 1515.16 1662.35 1513.52L1678.56 1501.55C1680.83 1499.87 1682.72 1497.73 1684.1 1495.27L1688.55 1487.36C1690.06 1484.67 1692.91 1483 1696 1483C1699.09 1483 1701.94 1484.67 1703.45 1487.36L1708.65 1496.61C1709.55 1498.19 1710.65 1499.65 1711.94 1500.94L1721 1510L1742.21 1527.95C1745.3 1530.56 1749.22 1532 1753.27 1532C1757.6 1532 1761.76 1530.37 1764.93 1527.42L1785.64 1508.19C1787.2 1506.74 1788.52 1505.05 1789.55 1503.18L1795.74 1491.92C1797.86 1488.08 1798.65 1483.65 1798 1479.32L1793.77 1451.13C1793.26 1447.77 1793.63 1444.33 1794.82 1441.14L1798.32 1431.82C1798.77 1430.61 1799.11 1429.36 1799.32 1428.08L1804.36 1397.82C1804.78 1395.3 1805.7 1392.88 1807.05 1390.72L1814.08 1379.47C1817.11 1374.62 1823.86 1373.86 1827.89 1377.89C1828.63 1378.63 1829.48 1379.22 1830.42 1379.66L1839.33 1383.82C1842.18 1385.15 1844 1388.01 1844 1391.15C1844 1395.1 1846.86 1398.48 1850.76 1399.13L1852.68 1399.45C1857.97 1400.33 1863.05 1397.05 1864.43 1391.87L1864.54 1391.47C1865.46 1388.04 1867.99 1385.28 1871.32 1384.07L1877 1382L1886.07 1380.06C1889.3 1379.36 1892.29 1377.84 1894.75 1375.63L1898.24 1372.48C1900 1370.9 1901 1368.65 1901 1366.29C1901 1364.17 1901.8 1362.14 1903.24 1360.6L1905.98 1357.66C1907.32 1356.23 1908.88 1355.02 1910.59 1354.07L1915.73 1351.25C1917.24 1350.42 1918.85 1349.79 1920.52 1349.37L1932.61 1346.35C1933.54 1346.12 1934.48 1345.95 1935.42 1345.85L1947.15 1344.65C1951.28 1344.23 1955.18 1342.53 1958.3 1339.79L1975.35 1324.83C1979.73 1320.99 1983.22 1316.24 1985.57 1310.91L1994.69 1290.24C1996.22 1286.78 1997.07 1283.06 1997.22 1279.28L1997.3 1277.15C1997.96 1260.14 1984.34 1246 1967.32 1246H1965H1963.63C1956.53 1246 1950.06 1250.09 1947.02 1256.51C1944.5 1261.84 1939.56 1265.64 1933.76 1266.71L1930.8 1267.26C1922.04 1268.88 1913.26 1264.51 1909.27 1256.54L1908 1254L1907.45 1252.48C1905.28 1246.52 1900.41 1241.94 1894.33 1240.14L1885.53 1237.53C1880.16 1235.94 1874.35 1236.95 1869.82 1240.26L1867.72 1241.81C1864.15 1244.42 1859.5 1245.06 1855.36 1243.51C1854.46 1243.17 1853.59 1242.73 1852.78 1242.2L1829.99 1227.27C1826.74 1225.14 1822.93 1224 1819.03 1224H1815.29C1808.83 1224 1802.77 1220.88 1799.02 1215.62L1798.73 1215.22C1796.3 1211.82 1795 1207.76 1795 1203.59V1200.97C1795 1197.71 1794.2 1194.49 1792.68 1191.61L1786.59 1180.12C1783.42 1174.12 1777.42 1170.14 1770.66 1169.55L1760.36 1168.65C1755.61 1168.23 1750.87 1169.52 1746.99 1172.29L1742.5 1175.5L1732.99 1180.46C1731.67 1181.15 1730.43 1181.99 1729.29 1182.95L1724.24 1187.24C1722.11 1189.06 1720.37 1191.31 1719.16 1193.84L1711.29 1210.27C1710.11 1212.73 1708.44 1214.92 1706.38 1216.72L1699.64 1222.57C1698.55 1223.52 1697.36 1224.35 1696.09 1225.04L1687 1230L1690.6 1244.39C1690.87 1245.46 1691.22 1246.51 1691.66 1247.52L1698.29 1262.77C1700.05 1266.81 1700.42 1271.32 1699.35 1275.59L1698 1281L1696.29 1291.02C1695.17 1297.57 1697.38 1304.25 1702.19 1308.85L1715.91 1321.96C1716.64 1322.65 1717.31 1323.4 1717.92 1324.19L1725.5 1334L1731.34 1344.13C1732.44 1346.03 1733.84 1347.74 1735.5 1349.18L1739.53 1352.72C1740.5 1353.57 1741.33 1354.57 1741.97 1355.69C1743.87 1359.01 1744 1363.06 1742.33 1366.5L1733.04 1385.68C1730.85 1390.22 1726.42 1393.25 1721.4 1393.65C1718.53 1393.88 1715.81 1394.97 1713.58 1396.78L1708.39 1401C1703.71 1404.79 1701 1410.5 1701 1416.52V1431V1443L1700.42 1452.21C1700.17 1456.23 1697.29 1459.6 1693.36 1460.47C1691.81 1460.82 1690.38 1461.56 1689.22 1462.64L1669.86 1480.38C1667.97 1482.11 1665.77 1483.46 1663.37 1484.36L1653.46 1488.08C1651.83 1488.69 1650.28 1489.51 1648.86 1490.53L1643.24 1494.55C1639.22 1497.41 1636.41 1501.66 1635.34 1506.48L1631 1526L1630.48 1527.42C1628.6 1532.61 1631.48 1538.32 1636.77 1539.87C1641.01 1541.12 1645.56 1539.3 1647.76 1535.48Z" fill="#FF5C00"/>
<path d="M1531.42 1186.2L1566.33 1186.96C1567.44 1186.99 1568.55 1187.1 1569.64 1187.31L1620.85 1197.07C1627.22 1198.28 1632.6 1202.5 1635.3 1208.4L1641.13 1221.17C1644.65 1228.86 1652.63 1233.51 1661.06 1232.78L1686.05 1230.6C1690.55 1230.21 1694.79 1228.31 1698.07 1225.21L1708.25 1215.57C1710.39 1213.55 1712.06 1211.08 1713.13 1208.33L1718.01 1195.87C1719.62 1191.74 1722.57 1188.27 1726.37 1185.99L1749.9 1171.94C1755.59 1168.54 1762.6 1168.18 1768.61 1170.98L1786.71 1179.43C1788.23 1180.14 1789.83 1180.66 1791.48 1180.97L1826.49 1187.53C1833.06 1188.76 1839.8 1186.63 1844.48 1181.86L1855.13 1170.96C1857.98 1168.06 1859.87 1164.35 1860.55 1160.34L1866.15 1127.54C1866.38 1126.18 1866.75 1124.86 1867.26 1123.58L1877.11 1098.53C1878.03 1096.2 1878.5 1093.71 1878.5 1091.21V1086.89C1878.5 1080.95 1881.16 1075.31 1885.76 1071.54C1890.05 1068.01 1895.63 1066.44 1901.14 1067.21L1917.92 1069.58C1922.19 1070.18 1926.54 1069.38 1930.32 1067.31L1931.87 1066.46C1937.03 1063.63 1940.68 1058.68 1941.85 1052.92L1954.74 989.743C1955.24 987.27 1955.27 984.724 1954.83 982.239L1940 899L1931.83 852.09C1927.15 825.205 1911.68 801.402 1889.02 786.2L1865.2 770.222C1824.36 742.828 1777.41 725.893 1728.49 720.908L1680.56 716.025C1673.92 715.349 1667.21 716.009 1660.83 717.967L1632.84 726.555C1628.72 727.818 1625.12 730.376 1622.58 733.848L1617.61 740.62C1613.32 746.468 1614.29 754.636 1619.82 759.328C1623.9 762.79 1625.61 768.298 1624.22 773.464L1618.71 793.864C1618.24 795.613 1617.53 797.29 1616.61 798.849L1614.54 802.332C1611.65 807.213 1606.76 810.648 1601.2 811.761C1591.85 813.631 1585 821.862 1585 831.396V836.538C1585 841.047 1583.48 845.423 1580.68 848.957L1554.5 882L1530.27 913.045C1525.52 919.126 1524.7 927.395 1528.15 934.295L1531.73 941.452C1534.98 947.96 1534.44 955.723 1530.32 961.721L1497.5 1009.5L1484.43 1032.16C1483.15 1034.36 1482.31 1036.8 1481.95 1039.32L1476.88 1074.85C1476.63 1076.61 1476.61 1078.39 1476.83 1080.16L1482.07 1122.03C1482.35 1124.33 1483.04 1126.55 1484.08 1128.62L1496.6 1153.23C1497.2 1154.41 1497.91 1155.52 1498.73 1156.56L1516.16 1178.61C1519.86 1183.29 1525.45 1186.08 1531.42 1186.2Z" fill="#FF0000"/>
<path d="M2212.34 1674.5H2217.45C2223.76 1674.5 2229.68 1671.46 2233.37 1666.34C2236.92 1661.39 2237.98 1655.09 2236.23 1649.26L2232.04 1635.31C2230.72 1630.91 2227.92 1627.09 2224.11 1624.51L2205.58 1611.95C2202.27 1609.7 2198.36 1608.5 2194.36 1608.5H2158.58C2156.87 1608.5 2155.16 1608.28 2153.51 1607.85L2136.34 1603.34C2129.61 1601.58 2122.44 1603.44 2117.42 1608.26L2101.63 1623.42C2100.88 1624.14 2100.07 1624.8 2099.22 1625.4L2091.77 1630.58C2086.85 1634.01 2080.66 1635.05 2074.89 1633.42L2067.01 1631.19C2061.02 1629.5 2056.15 1625.1 2053.86 1619.31L2050.94 1611.92C2049.05 1607.16 2045.41 1603.3 2040.76 1601.14L2034 1598L2008.9 1584.38C2002.85 1581.09 1995.45 1581.55 1989.85 1585.58C1985.51 1588.69 1982.79 1593.59 1982.42 1598.92L1980.23 1630.53C1979.77 1637.09 1976.13 1643 1970.48 1646.35L1956.54 1654.62C1952.33 1657.12 1949.18 1661.08 1947.69 1665.74L1941.18 1686.1C1939.47 1691.45 1935.59 1695.84 1930.49 1698.18L1913.5 1706L1893.03 1716.08C1886.47 1719.31 1883.93 1727.35 1887.45 1733.76C1888.78 1736.19 1890.86 1738.12 1893.39 1739.27L1901.67 1743.03C1907.26 1745.57 1910.03 1751.92 1908.08 1757.75C1907.38 1759.87 1906.09 1761.76 1904.36 1763.19L1888.91 1776.01C1885.48 1778.85 1883.5 1783.08 1883.5 1787.53C1883.5 1791.95 1885.45 1796.14 1888.83 1798.99L1901.16 1809.37C1902.05 1810.12 1903.01 1810.79 1904.01 1811.38L1922.3 1821.99C1925.37 1823.76 1929.24 1823.26 1931.75 1820.75C1934.69 1817.81 1939.42 1817.69 1942.51 1820.48L1949.46 1826.75C1951.46 1828.56 1953.85 1829.89 1956.44 1830.63L1967.31 1833.73C1969.09 1834.24 1970.94 1834.5 1972.8 1834.5H1977.05C1980.62 1834.5 1984.12 1835.45 1987.19 1837.26L1992.81 1840.56C1997.11 1843.1 2000.31 1847.15 2001.78 1851.92L2004.06 1859.31C2004.99 1862.34 2006.95 1864.95 2009.6 1866.68C2014.83 1870.1 2021.71 1869.51 2026.28 1865.26L2027.82 1863.82C2031.12 1860.75 2033 1856.4 2033 1851.89C2033 1849.34 2033.59 1846.82 2034.73 1844.54L2039.31 1835.37C2041.88 1830.24 2047.12 1827 2052.86 1827H2055.06C2062.21 1827 2068 1821.21 2068 1814.06C2068 1811.73 2067.37 1809.44 2066.18 1807.44L2058.95 1795.3C2056.71 1791.54 2055.77 1787.15 2056.27 1782.8L2056.53 1780.47C2057.15 1775.06 2059.95 1770.13 2064.28 1766.83L2065.34 1766.03C2067.1 1764.69 2068.63 1763.06 2069.86 1761.21L2079 1747.5L2100.5 1720L2115.46 1702.29C2118.09 1699.17 2121.61 1696.93 2125.55 1695.88L2140 1692L2154.57 1686.54C2155.52 1686.18 2156.45 1685.75 2157.33 1685.25L2168.78 1678.83C2173.7 1676.07 2179.55 1675.52 2184.89 1677.3L2186.58 1677.86C2190.74 1679.25 2195.25 1679.23 2199.4 1677.8L2205.84 1675.59C2207.93 1674.87 2210.13 1674.5 2212.34 1674.5Z" fill="#FF0000"/>
<path d="M2477.16 2552.52L2474.62 2553C2472.88 2553.33 2471.19 2553.89 2469.6 2554.67L2455.62 2561.48C2453.56 2562.49 2451.68 2563.84 2450.07 2565.49L2435.53 2580.38C2433.21 2582.76 2431.52 2585.67 2430.61 2588.86L2429.13 2594.06C2428.38 2596.66 2428.18 2599.38 2428.52 2602.07L2430.54 2618C2431.44 2625.11 2428.47 2632.16 2422.75 2636.48L2408.68 2647.11C2407.89 2647.7 2407.07 2648.24 2406.2 2648.71L2389.98 2657.56C2387.04 2659.16 2383.75 2660 2380.4 2660H2371.95C2367.45 2660 2363.08 2661.52 2359.55 2664.31L2349.55 2672.21C2345.66 2675.29 2343.05 2679.71 2342.23 2684.61L2341.16 2691.05C2340.41 2695.55 2341.22 2700.17 2343.45 2704.14L2344.55 2706.1C2347.38 2711.12 2352.23 2714.68 2357.88 2715.86L2394.1 2723.47C2397.32 2724.15 2400.65 2724.02 2403.81 2723.1L2430.55 2715.3C2433.48 2714.44 2436.17 2712.93 2438.43 2710.87L2463.5 2688L2476.98 2677C2480.55 2674.09 2485.02 2672.5 2489.62 2672.5H2503.44C2509.77 2672.5 2515.72 2669.5 2519.5 2664.42L2521.42 2661.82C2523.76 2658.68 2525.11 2654.92 2525.33 2651L2527.83 2605.63C2527.94 2603.56 2527.73 2601.48 2527.21 2599.47L2524.97 2590.92C2523.41 2584.98 2519.2 2580.07 2513.56 2577.63L2511.2 2576.61C2506.57 2574.61 2502.87 2570.94 2500.84 2566.33L2499.97 2564.37C2497.76 2559.35 2493.57 2555.45 2488.4 2553.61L2487.62 2553.33C2484.27 2552.13 2480.65 2551.85 2477.16 2552.52Z" fill="#8700C7"/>
<path d="M1772.76 2130.23L1752.73 2141.98C1751.58 2142.66 1750.5 2143.45 1749.5 2144.34L1742.2 2150.89C1738.53 2154.18 1733.77 2156 1728.85 2156H1718.13C1714.13 2156 1710.23 2157.2 1706.92 2159.43L1696.96 2166.17C1695.66 2167.05 1694.46 2168.09 1693.4 2169.25L1676.41 2187.86C1674.82 2189.6 1672.92 2191.06 1670.82 2192.14L1668.07 2193.56C1662.09 2196.64 1654.97 2196.52 1649.11 2193.23L1641.56 2189C1639.21 2187.68 1637.15 2185.9 1635.51 2183.77L1613.87 2155.72C1611.98 2153.27 1609.56 2151.3 1606.78 2149.95L1595.83 2144.62C1593.63 2143.55 1591.64 2142.08 1589.97 2140.29L1569.39 2118.26C1565.93 2114.56 1564 2109.68 1564 2104.61V2057.44C1564 2055.16 1564.39 2052.9 1565.15 2050.76L1576.31 2019.26C1577.42 2016.13 1579.29 2013.34 1581.74 2011.11L1613.9 1981.99C1614.63 1981.33 1615.41 1980.73 1616.23 1980.18L1659.43 1951.38C1661.78 1949.81 1664.44 1948.76 1667.23 1948.29L1699.79 1942.87C1705.04 1941.99 1710.43 1943.25 1714.76 1946.36L1736.5 1962L1752.54 1971.42C1757.01 1974.04 1762.31 1974.82 1767.35 1973.61L1773.9 1972.03C1781.57 1970.19 1789.6 1973.02 1794.42 1979.26L1806.19 1994.51C1807.69 1996.45 1808.5 1998.83 1808.5 2001.28C1808.5 2005.14 1806.49 2008.73 1803.18 2010.74L1801.32 2011.87C1798.64 2013.5 1797 2016.42 1797 2019.56C1797 2023.65 1799.76 2027.23 1803.71 2028.27L1811.38 2030.28C1814.41 2031.08 1817.6 2031.13 1820.65 2030.42L1832.8 2027.59C1835.89 2026.87 1839.1 2026.9 1842.18 2027.67L1851.82 2030.08C1855.53 2031.01 1858.89 2032.98 1861.52 2035.76L1864.29 2038.7C1870.11 2044.87 1871.4 2054.04 1867.51 2061.58L1858.57 2078.92C1857.86 2080.3 1856.99 2081.6 1855.98 2082.77L1838.66 2102.98C1833.67 2108.8 1825.79 2111.26 1818.37 2109.3L1813.74 2108.07C1807.61 2106.45 1801.08 2107.83 1796.14 2111.79L1775.13 2128.6C1774.38 2129.2 1773.58 2129.74 1772.76 2130.23Z" fill="#8700C7"/>
<path d="M2699.67 1712.19L2682.12 1681.58C2681.71 1680.86 2681.39 1680.1 2681.16 1679.3L2676.4 1662.24C2675.82 1660.14 2674.56 1658.29 2672.82 1656.97L2637.85 1630.41C2636.63 1629.48 2635.64 1628.29 2634.96 1626.92L2621.8 1600.59C2619.84 1596.67 2620.66 1591.93 2623.82 1588.9L2636.34 1576.91C2640.27 1573.13 2642.5 1567.92 2642.5 1562.47V1547.31C2642.5 1543.83 2643.41 1540.41 2645.14 1537.39L2652.5 1524.5L2661.67 1506.61C2662.22 1505.55 2662.95 1504.59 2663.84 1503.78L2709.73 1461.97C2711.81 1460.08 2713 1457.4 2713 1454.58V1437.4C2713 1436.8 2713.05 1436.2 2713.16 1435.61L2718.31 1407.31C2718.75 1404.86 2720.1 1402.66 2722.08 1401.15L2741.84 1386.06C2744.72 1383.86 2748.56 1383.39 2751.88 1384.83L2754.54 1385.98C2760.09 1388.38 2766.47 1385.35 2768.13 1379.55L2769.53 1374.66C2770.45 1371.44 2772.92 1368.89 2776.12 1367.88L2786.02 1364.74C2789.41 1363.66 2793.12 1364.47 2795.76 1366.86L2829 1397L2857.5 1417.5L2904.32 1451.01C2906.94 1452.89 2908.5 1455.91 2908.5 1459.14V1465.97C2908.5 1467.95 2907.92 1469.88 2906.82 1471.52L2875.5 1518.5L2868.54 1529.76C2866.4 1533.23 2866.58 1537.65 2868.99 1540.94L2873.26 1546.74C2877.7 1552.79 2886.96 1551.97 2890.29 1545.25L2902.01 1521.51C2902.98 1519.56 2904.56 1517.97 2906.51 1517L2911.64 1514.43C2915.2 1512.65 2919.47 1513.15 2922.53 1515.7L2952.83 1541.03C2953.61 1541.67 2954.28 1542.43 2954.82 1543.28L2960.14 1551.52C2962.45 1555.1 2962.24 1559.75 2959.62 1563.1L2944.62 1582.29C2943.25 1584.04 2942.5 1586.21 2942.5 1588.45V1601.56C2942.5 1605.22 2944.5 1608.59 2947.72 1610.34L2987.5 1632L2988.67 1632.67C2993.71 1635.55 2995.25 1642.1 2992.01 1646.92L2976.47 1670.07C2974.61 1672.84 2971.5 1674.5 2968.17 1674.5H2959C2953.48 1674.5 2949 1678.98 2949 1684.5V1685C2949 1688.43 2947.25 1691.61 2944.36 1693.45L2918.84 1709.65C2917.95 1710.21 2916.98 1710.63 2915.96 1710.89L2890.06 1717.55C2884.76 1718.91 2879.35 1715.76 2877.92 1710.48L2872.81 1691.65C2872.61 1690.89 2872.31 1690.15 2871.92 1689.45L2869.85 1685.68C2868.09 1682.49 2864.73 1680.5 2861.09 1680.5H2847.14C2843.91 1680.5 2840.89 1682.05 2839.01 1684.67L2822.19 1708.14C2821.09 1709.68 2819.57 1710.88 2817.81 1711.59L2805.47 1716.58C2800.67 1718.52 2798.15 1723.79 2799.64 1728.74L2802.04 1736.66C2802.96 1739.7 2802.37 1743 2800.46 1745.55L2794.5 1753.5C2792.61 1756.02 2789.65 1757.5 2786.5 1757.5H2775C2769.48 1757.5 2765 1761.98 2765 1767.5V1769V1773.83C2765 1780.29 2758.96 1785.06 2752.67 1783.55L2723.4 1776.55C2720.6 1775.88 2718.23 1774.04 2716.88 1771.5L2702.16 1743.7C2701.4 1742.25 2701 1740.65 2701 1739.02V1717.16C2701 1715.42 2700.54 1713.7 2699.67 1712.19Z" fill="#8700C7"/>
</g>
<defs>
<clipPath id="clip0">
<rect width="3000" height="3000" fill="white"/>
</clipPath>
</defs>
</svg>
